<svg width="40" height="40" viewBox="0 0 40 40" fill="none">
<path d="M22.5 2.5V17.5H37.5C37.5 13.5218 35.9196 9.70644 33.1066 6.8934C30.2936 4.08035 26.4782 2.5 22.5 2.5Z" stroke="white" stroke-width="2.5" stroke-linecap="round" stroke-linejoin="round"/>
<path d="M17.5 7.5C14.5333 7.5 11.6332 8.37973 9.16645 10.028C6.69972 11.6762 4.77713 14.0189 3.64181 16.7597C2.5065 19.5006 2.20945 22.5166 2.78823 25.4264C3.36701 28.3361 4.79562 31.0088 6.8934 33.1066C8.99119 35.2044 11.6639 36.633 14.5737 37.2118C17.4834 37.7906 20.4994 37.4935 23.2403 36.3582C25.9811 35.2229 28.3238 33.3003 29.9721 30.8336C31.6203 28.3668 32.5 25.4667 32.5 22.5H17.5V7.5Z" stroke="white" stroke-width="2.5" stroke-linecap="round" stroke-linejoin="round"/>
</svg>
