<svg width="40" height="40" viewBox="0 0 40 40" fill="none">
<g clip-path="url(#clip0_216_886)">
<path d="M21.25 26.5781V36.2448C21.25 36.9078 21.5134 37.5437 21.9822 38.0126C22.4511 38.4814 23.087 38.7448 23.75 38.7448H33.75C34.413 38.7448 35.0489 38.4814 35.5178 38.0126C35.9866 37.5437 36.25 36.9078 36.25 36.2448V26.5781" stroke="white" stroke-width="2.5" stroke-linecap="round" stroke-linejoin="round"/>
<path d="M18.75 28.7673L26.28 22.1789C26.9635 21.5801 27.8413 21.25 28.75 21.25C29.6587 21.25 30.5365 21.5801 31.22 22.1789L38.75 28.7673" stroke="white" stroke-width="2.5" stroke-linecap="round" stroke-linejoin="round"/>
<path d="M31.25 38.75H26.25V33.75C26.25 33.087 26.5134 32.4511 26.9822 31.9822C27.4511 31.5134 28.087 31.25 28.75 31.25C29.413 31.25 30.0489 31.5134 30.5178 31.9822C30.9866 32.4511 31.25 33.087 31.25 33.75V38.75Z" stroke="white" stroke-width="2.5" stroke-linecap="round" stroke-linejoin="round"/>
<path d="M6.25 11.25V26.25H13.75" stroke="white" stroke-width="2.5" stroke-linecap="round" stroke-linejoin="round"/>
<path d="M6.25 21.2535L10.7317 16.7719C10.9638 16.5395 11.2395 16.3553 11.5429 16.2295C11.8463 16.1038 12.1716 16.0391 12.5 16.0391C12.8284 16.0391 13.1537 16.1038 13.4571 16.2295C13.7605 16.3553 14.0362 16.5395 14.2683 16.7719L15.2367 17.7402C15.5053 18.0085 15.8316 18.2122 16.1907 18.3356C16.5497 18.4591 16.9322 18.4991 17.3091 18.4527C17.686 18.4063 18.0473 18.2746 18.3657 18.0677C18.6841 17.8608 18.9512 17.5841 19.1467 17.2585L19.7433 16.2585" stroke="white" stroke-width="2.5" stroke-linecap="round" stroke-linejoin="round"/>
<path d="M15 33.75H3.75C3.08696 33.75 2.45107 33.4866 1.98223 33.0178C1.51339 32.5489 1.25 31.913 1.25 31.25V3.75C1.25 3.08696 1.51339 2.45107 1.98223 1.98223C2.45107 1.51339 3.08696 1.25 3.75 1.25H21.465C22.1276 1.25014 22.763 1.5133 23.2317 1.98167L28.0183 6.76833C28.4867 7.237 28.7499 7.87242 28.75 8.535V16.25" stroke="white" stroke-width="2.5" stroke-linecap="round" stroke-linejoin="round"/>
</g>
<defs>
<clipPath id="clip0_216_886">
<rect width="40" height="40" fill="white"/>
</clipPath>
</defs>
</svg>
