<svg width="64" height="64" viewBox="0 0 64 64" fill="none" xmlns="http://www.w3.org/2000/svg">
<path d="M42.1012 32.4085H32.0967C31.5662 32.4085 31.1367 31.9784 31.1367 31.4485V22.7509C31.1367 22.2203 31.5662 21.7909 32.0967 21.7909C32.6266 21.7909 33.0567 22.2203 33.0567 22.7509V30.4878H41.1412V22.6114C41.1412 22.0808 41.5713 21.6514 42.1012 21.6514C42.6311 21.6514 43.0612 22.0808 43.0612 22.6114V31.4478C43.0612 31.9784 42.6311 32.4085 42.1012 32.4085Z" fill="#DFCEB3"/>
<path d="M44.2881 25.3746C44.0673 25.3746 43.8465 25.2991 43.6647 25.1442L37.1578 19.5839L30.7975 25.118C30.3975 25.4655 29.7908 25.4233 29.4426 25.0239C29.0951 24.6239 29.1367 24.0172 29.5367 23.669L36.5217 17.5916C36.8807 17.2805 37.4132 17.2773 37.7754 17.5865L44.9121 23.685C45.3153 24.0293 45.3626 24.6354 45.0183 25.0386C44.8289 25.2607 44.5594 25.3746 44.2881 25.3746Z" fill="#DFCEB3"/>
<path d="M37.201 44.0822C32.5713 44.0822 28.1572 42.4111 24.6647 39.3129C16.8554 32.3843 16.138 20.3939 23.0654 12.5852C26.419 8.80155 31.0462 6.55195 36.0938 6.24923C41.1505 5.94843 46.0055 7.62907 49.7886 10.9839C53.5729 14.3388 55.8238 18.9673 56.1258 24.0156C56.4286 29.0633 54.7473 33.9267 51.3918 37.7097C48.0362 41.4934 43.4078 43.7443 38.3594 44.0463C37.9722 44.07 37.5863 44.0822 37.201 44.0822ZM37.2484 8.13403C36.9034 8.13403 36.5566 8.14427 36.209 8.16539C31.6727 8.43675 27.5153 10.4591 24.5022 13.8588C18.2769 20.8758 18.922 31.6502 25.939 37.8761C29.338 40.8918 33.7156 42.3977 38.2449 42.1302C42.7818 41.8582 46.9406 39.8358 49.9562 36.4361C52.9713 33.0364 54.4817 28.6659 54.2097 24.1302C53.9377 19.5939 51.9159 15.4351 48.5156 12.4201C45.3758 9.63611 41.409 8.13403 37.2484 8.13403Z" fill="#DFCEB3"/>
<path d="M21.9561 43.5987C21.7295 43.5987 21.5023 43.5193 21.3193 43.3567C20.9225 43.0047 20.886 42.3987 21.238 42.0019L24.6434 38.1619C24.9954 37.7663 25.6021 37.7279 25.9983 38.0806C26.3951 38.4326 26.4316 39.0387 26.0796 39.4355L22.6741 43.2755C22.4847 43.4892 22.221 43.5987 21.9561 43.5987Z" fill="#DFCEB3"/>
<path d="M12.1487 57.7839C11.9132 57.7839 11.6847 57.6968 11.5087 57.5394L8.15956 54.5423C7.76468 54.1884 7.73076 53.5816 8.08468 53.1868L18.7432 41.2751C19.0952 40.8808 19.7 40.8463 20.0956 41.197L23.4562 44.18C23.6469 44.3496 23.7628 44.5884 23.7775 44.8431C23.7922 45.0978 23.7045 45.348 23.5343 45.5381L12.8642 57.4639C12.6946 57.654 12.4565 57.7685 12.2018 57.7826C12.1839 57.7832 12.1666 57.7839 12.1487 57.7839ZM10.1551 53.7519L12.0732 55.4684L21.46 44.9762L19.5356 43.2674L10.1551 53.7519Z" fill="#DFCEB3"/>
</svg>
