<svg width="15" height="14" viewBox="0 0 15 14" fill="none" xmlns="http://www.w3.org/2000/svg">
<g clip-path="url(#clip0_347_64586)">
<path d="M5.41406 0C6.22656 0 6.91406 0.6875 6.91406 1.5V6.5C6.91406 7.34375 6.22656 8 5.41406 8H2.41406C1.57031 8 0.914062 7.34375 0.914062 6.5V1.5C0.914062 0.6875 1.57031 0 2.41406 0H5.41406ZM13.4141 6C14.2266 6 14.9141 6.6875 14.9141 7.5V12.5C14.9141 13.3438 14.2266 14 13.4141 14H10.4141C9.57031 14 8.91406 13.3438 8.91406 12.5V7.5C8.91406 6.6875 9.57031 6 10.4141 6H13.4141ZM0.914062 11.5C0.914062 10.6875 1.57031 10 2.41406 10H5.41406C6.22656 10 6.91406 10.6875 6.91406 11.5V12.5C6.91406 13.3438 6.22656 14 5.41406 14H2.41406C1.57031 14 0.914062 13.3438 0.914062 12.5V11.5ZM13.4141 0C14.2266 0 14.9141 0.6875 14.9141 1.5V2.5C14.9141 3.34375 14.2266 4 13.4141 4H10.4141C9.57031 4 8.91406 3.34375 8.91406 2.5V1.5C8.91406 0.6875 9.57031 0 10.4141 0H13.4141Z" fill="black"/>
</g>
<defs>
<clipPath id="clip0_347_64586">
<rect width="14" height="14" fill="white" transform="translate(0.914062)"/>
</clipPath>
</defs>
</svg>
