<svg width="28" height="28" viewBox="0 0 28 28" fill="none" xmlns="http://www.w3.org/2000/svg">
<path d="M24.995 6.89688L14.295 0.796875C14.0283 0.596874 13.7616 0.596874 13.495 0.796875L2.79497 6.89688C2.1283 7.29688 1.59497 7.83021 1.19497 8.49687C0.794971 9.16354 0.594971 9.89688 0.594971 10.6969V22.8969C0.594971 24.0969 1.0283 25.1302 1.89497 25.9969C2.76164 26.8635 3.79497 27.2969 4.99497 27.2969H22.795C23.995 27.2969 25.0283 26.8635 25.895 25.9969C26.7616 25.1302 27.195 24.0969 27.195 22.8969V10.6969C27.195 9.89688 26.995 9.16354 26.595 8.49687C26.195 7.83021 25.6616 7.29688 24.995 6.89688ZM14.795 18.3969C14.795 17.4635 15.145 16.6469 15.845 15.9469C16.545 15.2469 17.3616 14.8969 18.295 14.8969C18.5616 14.8969 18.7783 14.9802 18.945 15.1469C19.1116 15.3135 19.195 15.5302 19.195 15.7969C19.195 16.7969 18.845 17.6302 18.145 18.2969C17.445 18.9635 16.6283 19.2969 15.695 19.2969H14.795V18.3969ZM12.995 19.2969H12.095C11.1616 19.2969 10.345 18.9635 9.64497 18.2969C8.94497 17.6302 8.59497 16.7969 8.59497 15.7969C8.59497 15.5302 8.6783 15.3135 8.84497 15.1469C9.01164 14.9802 9.2283 14.8969 9.49497 14.8969C10.4283 14.8969 11.245 15.2469 11.945 15.9469C12.645 16.6469 12.995 17.4635 12.995 18.3969V19.2969ZM25.495 22.8969C25.495 23.6302 25.2283 24.2635 24.695 24.7969C24.1616 25.3302 23.5283 25.5969 22.795 25.5969H14.795V21.0969H15.695C17.1616 21.0969 18.4116 20.5802 19.445 19.5469C20.4783 18.5135 20.995 17.2635 20.995 15.7969C20.995 15.0635 20.7283 14.4302 20.195 13.8969C19.6616 13.3635 19.0283 13.0969 18.295 13.0969C16.8283 13.0969 15.595 13.6302 14.595 14.6969C14.3283 14.9635 14.095 15.2302 13.895 15.4969C13.3616 14.7635 12.7116 14.1802 11.945 13.7469C11.1783 13.3135 10.3283 13.0969 9.39497 13.0969C8.66164 13.0969 8.04497 13.3635 7.54497 13.8969C7.04497 14.4302 6.79497 15.0635 6.79497 15.7969C6.79497 17.2635 7.31164 18.5135 8.34497 19.5469C9.3783 20.5802 10.6283 21.0969 12.095 21.0969H12.995V25.5969H4.99497C4.26164 25.5969 3.6283 25.3302 3.09497 24.7969C2.56164 24.2635 2.29497 23.6302 2.29497 22.8969V10.6969C2.29497 10.2302 2.4283 9.79688 2.69497 9.39688C2.96164 8.99687 3.29497 8.66354 3.69497 8.39688L13.895 2.59687L24.095 8.39688C24.495 8.66354 24.8283 8.99687 25.095 9.39688C25.3616 9.79688 25.495 10.2302 25.495 10.6969V22.8969Z" fill="#181A20"/>
</svg>
