<svg width="31" height="30" viewBox="0 0 31 30" fill="none" xmlns="http://www.w3.org/2000/svg">
<g clip-path="url(#clip0_560_770)">
<path d="M23.495 7.99687L15.495 2.39688C14.7616 1.93021 13.9283 1.69687 12.995 1.69687C12.0616 1.69687 11.2283 1.93021 10.495 2.39688L2.49497 7.99687C1.89497 8.39688 1.4283 8.91354 1.09497 9.54688C0.761637 10.1802 0.594971 10.8635 0.594971 11.5969V23.8969C0.594971 25.0969 1.0283 26.1302 1.89497 26.9969C2.76164 27.8635 3.79497 28.2969 4.99497 28.2969H20.995C22.195 28.2969 23.2283 27.8635 24.095 26.9969C24.9616 26.1302 25.395 25.0969 25.395 23.8969V11.5969C25.395 10.8635 25.2283 10.1802 24.895 9.54688C24.5616 8.91354 24.095 8.39688 23.495 7.99687ZM3.49497 9.39688L11.495 3.89688C11.895 3.56354 12.3783 3.39688 12.945 3.39688C13.5116 3.39688 14.0283 3.56354 14.495 3.89688L22.395 9.39688C22.795 9.66354 23.095 9.99687 23.295 10.3969C23.495 10.7969 23.595 11.1969 23.595 11.5969V22.0969H2.39497V11.5969C2.39497 11.1302 2.49497 10.7135 2.69497 10.3469C2.89497 9.98021 3.16164 9.66354 3.49497 9.39688ZM22.795 25.7969C22.3283 26.3302 21.7283 26.5969 20.995 26.5969H4.99497C4.26164 26.5969 3.64497 26.3302 3.14497 25.7969C2.64497 25.2635 2.39497 24.6302 2.39497 23.8969H23.595C23.595 24.6302 23.3283 25.2635 22.795 25.7969ZM12.195 18.5969C12.195 18.8635 12.2783 19.0802 12.445 19.2469C12.6116 19.4135 12.8116 19.4969 13.045 19.4969C13.2783 19.4969 13.4783 19.4135 13.645 19.2469C13.8116 19.0802 13.895 18.8635 13.895 18.5969C13.895 18.3302 13.8116 18.1135 13.645 17.9469C13.4783 17.7802 13.2783 17.6969 13.045 17.6969C12.8116 17.6969 12.6116 17.7802 12.445 17.9469C12.2783 18.1135 12.195 18.3302 12.195 18.5969ZM13.095 14.1969C12.295 14.1969 11.545 14.3969 10.845 14.7969C10.145 15.1969 9.59497 15.7302 9.19497 16.3969L10.795 17.2969C10.995 16.8302 11.295 16.4802 11.695 16.2469C12.095 16.0135 12.545 15.8969 13.045 15.8969C13.545 15.8969 13.995 16.0135 14.395 16.2469C14.795 16.4802 15.1283 16.8302 15.395 17.2969L16.895 16.3969C16.495 15.7302 15.945 15.1969 15.245 14.7969C14.545 14.3969 13.8283 14.1969 13.095 14.1969ZM13.095 12.3969C14.1616 12.3969 15.1783 12.6802 16.145 13.2469C17.1116 13.8135 17.8616 14.5635 18.395 15.4969L19.995 14.5969C19.2616 13.3969 18.2783 12.4302 17.045 11.6969C15.8116 10.9635 14.4783 10.5969 13.045 10.5969C11.6116 10.5969 10.2783 10.9635 9.04497 11.6969C7.81164 12.4302 6.86164 13.3969 6.19497 14.5969L7.69497 15.4969C8.2283 14.5635 8.9783 13.8135 9.94497 13.2469C10.9116 12.6802 11.9616 12.3969 13.095 12.3969Z" fill="#181A20"/>
</g>
<defs>
<clipPath id="clip0_560_770">
<rect width="30" height="30" fill="white" transform="matrix(1 0 0 -1 0.594971 30)"/>
</clipPath>
</defs>
</svg>
