<svg width="31" height="30" viewBox="0 0 31 30" fill="none" xmlns="http://www.w3.org/2000/svg">
<g clip-path="url(#clip0_560_759)">
<path d="M25.7952 9.29688L21.8952 7.29688V4.29688C21.8952 3.56354 21.6285 2.94687 21.0952 2.44687C20.5619 1.94687 19.9285 1.69687 19.1952 1.69687H8.59521C7.86188 1.69687 7.22855 1.94687 6.69521 2.44687C6.16188 2.94687 5.89522 3.56354 5.89522 4.29688V7.29688L1.99521 9.29688C1.59521 9.49687 1.26188 9.81354 0.995215 10.2469C0.728548 10.6802 0.595215 11.1635 0.595215 11.6969V27.3969C0.595215 27.6635 0.678548 27.8802 0.845215 28.0469C1.01188 28.2135 1.22855 28.2969 1.49521 28.2969H26.2952C26.5619 28.2969 26.7785 28.2135 26.9452 28.0469C27.1119 27.8802 27.1952 27.6635 27.1952 27.3969V11.6969C27.1952 11.1635 27.0619 10.6802 26.7952 10.2469C26.5285 9.81354 26.1952 9.49687 25.7952 9.29688ZM5.89522 26.5969H2.29521V11.6969C2.29521 11.2969 2.46188 10.9969 2.79521 10.7969L5.89522 9.29688V26.5969ZM16.5952 26.5969H11.1952V22.9969H16.5952V26.5969ZM20.0952 26.5969H18.2952V22.0969C18.2952 21.8302 18.2119 21.6135 18.0452 21.4469C17.8785 21.2802 17.6952 21.1969 17.4952 21.1969H10.2952C10.0952 21.1969 9.89522 21.2802 9.69522 21.4469C9.49522 21.6135 9.39522 21.8302 9.39522 22.0969V26.4969H7.69521V4.29688C7.69521 4.09687 7.77855 3.89688 7.94521 3.69687C8.11188 3.49687 8.32855 3.39688 8.59521 3.39688H19.1952C19.4619 3.39688 19.6785 3.49687 19.8452 3.69687C20.0119 3.89688 20.0952 4.09687 20.0952 4.29688V26.5969ZM25.4952 26.5969H21.8952V9.29688L24.9952 10.7969C25.3285 10.9969 25.4952 11.2969 25.4952 11.6969V26.5969ZM14.7952 15.8969H18.3952V17.6969H14.7952V15.8969ZM9.49522 15.8969H12.9952V17.6969H9.49522V15.8969ZM14.7952 12.2969H18.3952V14.0969H14.7952V12.2969ZM9.49522 12.2969H12.9952V14.0969H9.49522V12.2969ZM14.7952 8.79688H18.3952V10.4969H14.7952V8.79688ZM9.49522 8.79688H12.9952V10.4969H9.49522V8.79688ZM14.7952 5.19687H18.3952V6.99687H14.7952V5.19687ZM9.49522 5.19687H12.9952V6.99687H9.49522V5.19687Z" fill="#181A20"/>
</g>
<defs>
<clipPath id="clip0_560_759">
<rect width="30" height="30" fill="white" transform="matrix(1 0 0 -1 0.595215 30)"/>
</clipPath>
</defs>
</svg>
