<svg width="55" height="62" viewBox="0 0 55 62" fill="none" xmlns="http://www.w3.org/2000/svg">
<path d="M18.159 33.142C18.159 33.142 9.89201 14.9154 16.076 4.24512C18.1279 0.704677 21.2145 -0.747753 23.7006 0.369346C26.2661 1.50262 28.4486 4.64614 25.3527 9.26207C23.1831 12.5048 14.4251 23.0991 23.7725 38.3887C23.7725 38.3887 14.5949 33.7829 6.70419 35.3991C2.5181 36.2546 0.0906338 34.5458 0 31.2068C0 31.2068 0.283455 25.8937 7.33673 28.257C10.4976 29.3138 15.4543 31.0021 18.159 33.142Z" fill="#72809D"/>
<path d="M28.7514 42.9686C28.7514 42.9686 17.1565 27.4483 30.3298 10.4419C32.5427 7.58412 35.8358 6.78735 38.7752 8.84964C42.0893 11.1748 40.5826 15.6248 37.6554 18.5086C27.7481 28.2648 26.3975 33.9376 32.4964 46.4206C18.9235 41.5292 12.6337 48.2322 7.49138 48.52C5.84231 48.616 3.36578 47.7994 2.82877 45.6495C2.54028 44.6166 2.64124 43.5143 3.11252 42.5505C3.58381 41.5866 4.39294 40.828 5.38714 40.4175C9.69867 38.7017 22.6347 40.1645 28.7514 42.9686Z" fill="#070026"/>
<path d="M41.7875 54.4536C41.7875 54.4536 29.6129 46.7608 15.2048 59.8882C12.9393 61.9369 9.03226 61.7491 7.57138 59.4455C6.16934 57.2347 7.48079 54.0826 10.4048 52.1648C20.7741 45.3828 36.2482 49.9988 36.2482 49.9988C28.9619 35.0981 37.7799 23.4703 42.3923 18.7823C47.1153 13.9752 51.3053 15.2285 53.2672 17.608C55.1709 19.883 54.8799 23.9112 48.796 27.8472C48.2911 28.2176 31.3207 38.6322 41.7875 54.4536Z" fill="#4081FF"/>
</svg>
