<svg width="128" height="128" viewBox="0 0 128 128" fill="none" xmlns="http://www.w3.org/2000/svg">
<g clip-path="url(#clip0_347_64578)">
<path d="M85.1063 61.4967L58.5275 42.176C57.5521 41.4689 56.2572 41.3624 55.1881 41.9119C54.1105 42.4571 53.4375 43.5645 53.4375 44.7614V83.3902C53.4375 84.5998 54.1105 85.703 55.1881 86.2482C55.6439 86.4783 56.1422 86.5933 56.6448 86.5933C57.3008 86.5933 57.9653 86.3845 58.5275 85.9714L85.1063 66.6677C85.9454 66.05 86.4353 65.0959 86.4353 64.0822C86.4395 63.0514 85.9369 62.1016 85.1063 61.4967Z" fill="white" fill-opacity="0.5"/>
<path d="M64.0021 0.0078125C28.6489 0.0078125 0 28.6567 0 64.0099C0 99.3504 28.6489 127.991 64.0021 127.991C99.3468 127.991 128 99.3461 128 64.0099C128.004 28.6567 99.3468 0.0078125 64.0021 0.0078125ZM64.0021 117.312C34.561 117.312 10.6912 93.4554 10.6912 64.0099C10.6912 34.5773 34.561 10.6905 64.0021 10.6905C93.439 10.6905 117.305 34.5731 117.305 64.0099C117.309 93.4554 93.439 117.312 64.0021 117.312Z" fill="white" fill-opacity="0.5"/>
</g>
<defs>
<clipPath id="clip0_347_64578">
<rect width="128" height="128" fill="white"/>
</clipPath>
</defs>
</svg>
