<svg width="24" height="24" viewBox="0 0 24 24" fill="none" xmlns="http://www.w3.org/2000/svg">
<rect width="24" height="24" rx="12" fill="#4081FF"/>
<mask id="mask0_133_4478" style="mask-type:alpha" maskUnits="userSpaceOnUse" x="6" y="6" width="12" height="12">
<path d="M17.0013 12.8332H12.8346V16.9998C12.8346 17.4582 12.4596 17.8332 12.0013 17.8332C11.543 17.8332 11.168 17.4582 11.168 16.9998V12.8332H7.0013C6.54297 12.8332 6.16797 12.4582 6.16797 11.9998C6.16797 11.5415 6.54297 11.1665 7.0013 11.1665H11.168V6.99984C11.168 6.5415 11.543 6.1665 12.0013 6.1665C12.4596 6.1665 12.8346 6.5415 12.8346 6.99984V11.1665H17.0013C17.4596 11.1665 17.8346 11.5415 17.8346 11.9998C17.8346 12.4582 17.4596 12.8332 17.0013 12.8332Z" fill="black"/>
</mask>
<g mask="url(#mask0_133_4478)">
<rect x="2" y="2" width="20" height="20" fill="white"/>
</g>
</svg>
